<svg width="40" height="40" viewBox="0 0 40 40" fill="none" xmlns="http://www.w3.org/2000/svg">
<rect width="40" height="40" rx="20" fill="#F5BD02"/>
<path d="M18.9033 10.1001L28.8033 11.5141L30.2173 21.4141L21.0253 30.6061C20.9324 30.6991 20.8221 30.7728 20.7007 30.8232C20.5793 30.8735 20.4492 30.8994 20.3178 30.8994C20.1863 30.8994 20.0562 30.8735 19.9348 30.8232C19.8134 30.7728 19.7031 30.6991 19.6103 30.6061L9.71026 20.7061C9.52309 20.5186 9.41797 20.2645 9.41797 19.9996C9.41797 19.7347 9.52309 19.4806 9.71026 19.2931L18.9033 10.1001ZM19.6103 12.2221L11.8323 20.0001L20.3173 28.4851L28.0963 20.7071L27.0353 13.2821L19.6103 12.2221ZM21.7323 18.5851C21.5412 18.4006 21.3889 18.1799 21.2841 17.9359C21.1792 17.6919 21.1241 17.4295 21.1218 17.1639C21.1194 16.8983 21.1701 16.635 21.2706 16.3892C21.3712 16.1434 21.5197 15.9201 21.7075 15.7323C21.8953 15.5445 22.1186 15.396 22.3643 15.2955C22.6101 15.1949 22.8735 15.1443 23.1391 15.1466C23.4046 15.1489 23.6671 15.2041 23.9111 15.3089C24.1551 15.4137 24.3758 15.5661 24.5603 15.7571C24.9354 16.1321 25.1462 16.6408 25.1463 17.1712C25.1464 17.7017 24.9358 18.2104 24.5608 18.5856C24.1857 18.9607 23.6771 19.1716 23.1466 19.1716C22.6162 19.1717 22.1074 18.9601 21.7323 18.5851Z" fill="white"/>
</svg>
