<svg width="41" height="40" viewBox="0 0 41 40" fill="none" xmlns="http://www.w3.org/2000/svg">
<rect x="0.5" y="0.00732422" width="40" height="40" rx="20" fill="#F5BD02"/>
<path d="M30.5 25.0093C30.4999 26.377 30.0326 27.7036 29.1755 28.7693C28.3183 29.835 27.1228 30.576 25.787 30.8693L25.149 28.9553C25.7333 28.8593 26.289 28.6348 26.776 28.2979C27.263 27.961 27.6691 27.5202 27.965 27.0073H25.5C24.9696 27.0073 24.4609 26.7966 24.0858 26.4215C23.7107 26.0465 23.5 25.5378 23.5 25.0073V21.0073C23.5 20.4769 23.7107 19.9682 24.0858 19.5931C24.4609 19.218 24.9696 19.0073 25.5 19.0073H28.438C28.194 17.0742 27.2529 15.2966 25.7914 14.008C24.3299 12.7194 22.4484 12.0084 20.5 12.0084C18.5516 12.0084 16.6701 12.7194 15.2086 14.008C13.7471 15.2966 12.806 17.0742 12.562 19.0073H15.5C16.0304 19.0073 16.5391 19.218 16.9142 19.5931C17.2893 19.9682 17.5 20.4769 17.5 21.0073V25.0073C17.5 25.5378 17.2893 26.0465 16.9142 26.4215C16.5391 26.7966 16.0304 27.0073 15.5 27.0073H12.5C11.9696 27.0073 11.4609 26.7966 11.0858 26.4215C10.7107 26.0465 10.5 25.5378 10.5 25.0073V20.0073C10.5 14.4843 14.977 10.0073 20.5 10.0073C26.023 10.0073 30.5 14.4843 30.5 20.0073V25.0093ZM28.5 25.0073V21.0073H25.5V25.0073H28.5ZM12.5 21.0073V25.0073H15.5V21.0073H12.5Z" fill="white"/>
</svg>
