<svg width="40" height="40" viewBox="0 0 40 40" fill="none" xmlns="http://www.w3.org/2000/svg">
<rect width="40" height="40" rx="20" fill="#F5BD02"/>
<path d="M9.5 28.1668V17.7567C9.5 17.22 9.68006 16.7716 10.0402 16.4115C10.4003 16.0514 10.8483 15.8717 11.3842 15.8725H14.75V13.7177C14.75 13.181 14.9301 12.7326 15.2902 12.3725C15.6503 12.0124 16.0987 11.8327 16.6353 11.8335H23.3658C23.9025 11.8335 24.3509 12.0132 24.711 12.3725C25.0711 12.7318 25.2508 13.1802 25.25 13.7177V15.8713H28.6158C29.1525 15.8713 29.6005 16.0514 29.9598 16.4115C30.3192 16.7716 30.4992 17.22 30.5 17.7567V28.1668H9.5ZM14.6158 22.6018V23.7685H13.4492V22.6018H10.6667V27.0002H29.3333V22.6018H26.552V23.7685H25.3853V22.6018H14.6158ZM10.6667 17.7578V21.4375H13.4492V20.2708H14.6158V21.4375H25.3842V20.2708H26.5508V21.4375H29.3333V17.7578C29.3333 17.5789 29.2587 17.4144 29.1093 17.2643C28.9592 17.115 28.7943 17.0403 28.6147 17.0403H11.3853C11.2057 17.0403 11.0408 17.115 10.8907 17.2643C10.7406 17.4137 10.6659 17.5778 10.6667 17.7567M15.9167 15.8713H24.0833V13.7177C24.0833 13.5388 24.0087 13.3743 23.8593 13.2242C23.71 13.0741 23.5455 12.9994 23.3658 13.0002H16.6342C16.4553 13.0002 16.2908 13.0748 16.1407 13.2242C15.9906 13.3735 15.9159 13.5384 15.9167 13.7188V15.8713Z" fill="white"/>
<path d="M10.6667 17.7578V21.4375H13.4492V20.2708H14.6158V21.4375H25.3842V20.2708H26.5508V21.4375H29.3333V17.7578C29.3333 17.5789 29.2587 17.4144 29.1093 17.2643C28.9592 17.115 28.7943 17.0403 28.6147 17.0403H11.3853C11.2057 17.0403 11.0408 17.115 10.8907 17.2643C10.7406 17.4137 10.6659 17.5778 10.6667 17.7567M9.5 28.1668V17.7567C9.5 17.22 9.68006 16.7716 10.0402 16.4115C10.4003 16.0514 10.8483 15.8717 11.3842 15.8725H14.75V13.7177C14.75 13.181 14.9301 12.7326 15.2902 12.3725C15.6503 12.0124 16.0987 11.8327 16.6353 11.8335H23.3658C23.9025 11.8335 24.3509 12.0132 24.711 12.3725C25.0711 12.7318 25.2508 13.1802 25.25 13.7177V15.8713H28.6158C29.1525 15.8713 29.6005 16.0514 29.9598 16.4115C30.3192 16.7716 30.4992 17.22 30.5 17.7567V28.1668H9.5ZM14.6158 22.6018V23.7685H13.4492V22.6018H10.6667V27.0002H29.3333V22.6018H26.552V23.7685H25.3853V22.6018H14.6158ZM15.9167 15.8713H24.0833V13.7177C24.0833 13.5388 24.0087 13.3743 23.8593 13.2242C23.71 13.0741 23.5455 12.9994 23.3658 13.0002H16.6342C16.4553 13.0002 16.2908 13.0748 16.1407 13.2242C15.9906 13.3735 15.9159 13.5384 15.9167 13.7188V15.8713Z" stroke="white" stroke-width="0.5"/>
</svg>
