<svg width="41" height="40" viewBox="0 0 41 40" fill="none" xmlns="http://www.w3.org/2000/svg">
<rect x="0.5" y="0.00732422" width="40" height="40" rx="20" fill="#F5BD02"/>
<path d="M20.4979 9.17383C17.4104 9.17383 15.4095 11.3622 13.0424 12.1584C12.0804 12.4834 11.5983 12.6448 11.4044 12.8734C11.2094 13.1009 11.152 13.4357 11.0382 14.103C9.8173 21.2487 12.4856 27.8548 18.848 30.4267C19.5316 30.7029 19.8739 30.8405 20.5011 30.8405C21.1284 30.8405 21.4718 30.7029 22.1554 30.4267C28.5178 27.8548 31.1828 21.2487 29.9619 14.103C29.8471 13.4357 29.7907 13.102 29.5957 12.8734C29.4007 12.6448 28.9197 12.4834 27.9577 12.1584C25.5896 11.3622 23.5854 9.17383 20.4979 9.17383Z" stroke="white" stroke-width="1.5" stroke-linecap="round" stroke-linejoin="round"/>
<path d="M20.3197 20.1882C21.4627 21.3312 22.9685 22.4925 22.9685 22.4925L25.0322 20.4287C25.0322 20.4287 23.8709 18.9229 22.728 17.78C21.5851 16.6371 20.0792 15.4757 20.0792 15.4757L18.0155 17.5395C18.0155 17.5395 19.1768 19.0453 20.3197 20.1882ZM20.3197 20.1882L16.709 23.799M25.3757 20.0842L22.624 22.8359M20.4248 15.1323L17.6732 17.884" stroke="white" stroke-width="1.5" stroke-linecap="round" stroke-linejoin="round"/>
</svg>
