<svg width="41" height="40" viewBox="0 0 41 40" fill="none" xmlns="http://www.w3.org/2000/svg">
<rect x="0.5" y="0.00732422" width="40" height="40" rx="20" fill="#F5BD02"/>
<path d="M17.5 21.0073H23.5M17.5 25.0073H20.5M12.5 12.0073V28.0073C12.5 28.5378 12.7107 29.0465 13.0858 29.4215C13.4609 29.7966 13.9696 30.0073 14.5 30.0073H26.5C27.0304 30.0073 27.5391 29.7966 27.9142 29.4215C28.2893 29.0465 28.5 28.5378 28.5 28.0073V16.3493C28.5 16.0829 28.4467 15.8191 28.3433 15.5736C28.2399 15.328 28.0885 15.1056 27.898 14.9193L23.458 10.5773C23.0844 10.212 22.5826 10.0074 22.06 10.0073H14.5C13.9696 10.0073 13.4609 10.218 13.0858 10.5931C12.7107 10.9682 12.5 11.4769 12.5 12.0073Z" stroke="white" stroke-width="1.5" stroke-linecap="round" stroke-linejoin="round"/>
<path d="M22.5 10.0073V14.0073C22.5 14.5378 22.7107 15.0465 23.0858 15.4215C23.4609 15.7966 23.9696 16.0073 24.5 16.0073H28.5" stroke="white" stroke-width="1.5" stroke-linejoin="round"/>
</svg>
