<svg width="41" height="41" viewBox="0 0 41 41" fill="none" xmlns="http://www.w3.org/2000/svg">
<rect x="0.5" y="0.868164" width="40" height="40" rx="20" fill="#F5BD02"/>
<path d="M28.5 21.0502V16.6862C28.5 14.9932 28.5 14.1462 28.232 13.4702C27.802 12.3832 26.89 11.5262 25.735 11.1202C25.017 10.8682 24.117 10.8682 22.318 10.8682C19.17 10.8682 17.596 10.8682 16.338 11.3092C14.318 12.0192 12.723 13.5192 11.968 15.4222C11.5 16.6052 11.5 18.0872 11.5 21.0502V23.5952C11.5 26.6652 11.5 28.1992 12.348 29.2652C12.592 29.5725 12.877 29.8408 13.203 30.0702C14.248 30.8062 15.717 30.8632 18.5 30.8682" stroke="white" stroke-width="2" stroke-linecap="round" stroke-linejoin="round"/>
<path d="M11.5 20.8682C11.5 19.9842 11.8512 19.1364 12.4762 18.5114C13.1013 17.8863 13.949 17.5352 14.833 17.5352C15.499 17.5352 16.284 17.6512 16.931 17.4782C17.2137 17.4021 17.4714 17.253 17.6784 17.0459C17.8853 16.8388 18.0342 16.5809 18.11 16.2982C18.283 15.6512 18.167 14.8662 18.167 14.2002C18.1673 13.3164 18.5185 12.4689 19.1436 11.844C19.7686 11.2192 20.6162 10.8682 21.5 10.8682M20.5 25.8682L21.523 26.4622C22.037 24.5962 24.011 23.4882 25.932 23.9882C26.3956 24.1067 26.8308 24.317 27.2117 24.6065C27.5927 24.8961 27.9117 25.2592 28.15 25.6742M29.5 28.8682L28.477 28.2742C27.963 30.1402 25.989 31.2482 24.068 30.7482C23.1528 30.5145 22.3671 29.9286 21.882 29.1182" stroke="white" stroke-width="2" stroke-linecap="round" stroke-linejoin="round"/>
</svg>
