<svg width="28" height="28" viewBox="0 0 28 28" fill="none" xmlns="http://www.w3.org/2000/svg">
<path d="M10.8392 7.82832C10.7311 7.93625 10.6453 8.06445 10.5867 8.20559C10.5282 8.34673 10.498 8.49802 10.498 8.65082C10.498 8.80361 10.5282 8.95491 10.5867 9.09605C10.6453 9.23718 10.7311 9.36539 10.8392 9.47332L15.3659 14L10.8392 18.5267C10.7312 18.6347 10.6455 18.7629 10.5871 18.904C10.5286 19.0451 10.4985 19.1964 10.4985 19.3492C10.4985 19.5019 10.5286 19.6532 10.5871 19.7943C10.6455 19.9354 10.7312 20.0636 10.8392 20.1717C10.9472 20.2797 11.0755 20.3653 11.2166 20.4238C11.3577 20.4823 11.509 20.5123 11.6617 20.5123C11.8145 20.5123 11.9657 20.4823 12.1069 20.4238C12.248 20.3653 12.3762 20.2797 12.4842 20.1717L17.8392 14.8167C17.9474 14.7087 18.0332 14.5805 18.0917 14.4394C18.1503 14.2982 18.1804 14.1469 18.1804 13.9942C18.1804 13.8414 18.1503 13.6901 18.0917 13.5489C18.0332 13.4078 17.9474 13.2796 17.8392 13.1717L12.4842 7.81665C12.0409 7.37332 11.2942 7.37332 10.8392 7.82832Z" fill="white"/>
</svg>
