<svg width="37" height="37" viewBox="0 0 37 37" fill="none" xmlns="http://www.w3.org/2000/svg">
<path d="M23.1042 11.245C23.1042 11.0149 22.9176 10.8284 22.6875 10.8284H20.6042C18.4203 10.7196 16.5586 12.3951 16.4375 14.5784V16.8284H14.3542C14.124 16.8284 13.9375 17.0149 13.9375 17.245V19.4117C13.9375 19.6418 14.124 19.8284 14.3542 19.8284H16.4375V25.4117C16.4375 25.6418 16.624 25.8284 16.8542 25.8284H19.3542C19.5843 25.8284 19.7708 25.6418 19.7708 25.4117V19.8284H21.9542C22.1448 19.8311 22.313 19.7041 22.3625 19.52L22.9625 17.3534C22.9961 17.2286 22.9699 17.0953 22.8916 16.9925C22.8133 16.8897 22.6917 16.8291 22.5625 16.8284H19.7708V14.5784C19.8138 14.151 20.1746 13.8262 20.6042 13.8284H22.6875C22.9176 13.8284 23.1042 13.6418 23.1042 13.4117V11.245Z" fill="white"/>
</svg>
