<svg width="37" height="37" viewBox="0 0 37 37" fill="none" xmlns="http://www.w3.org/2000/svg">
<path d="M15.6717 24.995C18.1612 25.0783 20.5786 24.1513 22.3742 22.4249C24.1697 20.6984 25.1907 18.3192 25.2051 15.8284C25.7698 15.1295 26.1891 14.3249 26.4384 13.4617C26.4764 13.3224 26.4291 13.1737 26.3176 13.082C26.2061 12.9903 26.0511 12.9725 25.9217 13.0367C25.3159 13.3283 24.5916 13.2009 24.1217 12.72C23.5307 12.0728 22.7028 11.6925 21.8267 11.6658C20.9506 11.6391 20.1011 11.9683 19.4717 12.5784C18.6042 13.4185 18.2405 14.6519 18.5134 15.8284C15.7217 15.995 13.8051 14.67 12.2717 12.8534C12.1776 12.7468 12.0294 12.7059 11.8939 12.7493C11.7585 12.7926 11.6615 12.9119 11.6467 13.0534C11.0485 16.3718 12.5775 19.7123 15.4801 21.4284C14.5298 22.5182 13.1952 23.1989 11.7551 23.3284C11.5969 23.3546 11.4729 23.4785 11.4465 23.6367C11.4202 23.7948 11.4973 23.9522 11.6384 24.0284C12.8913 24.6545 14.2711 24.9852 15.6717 24.995Z" fill="white"/>
</svg>
