<svg width="37" height="37" viewBox="0 0 37 37" fill="none" xmlns="http://www.w3.org/2000/svg">
<path d="M17.0851 18.3283C17.0851 19.3509 17.9139 20.1801 18.9368 20.1801C19.9598 20.1801 20.7886 19.3512 20.7886 18.3283C20.7886 17.3058 19.9598 16.4766 18.9368 16.4766C17.9143 16.4766 17.0851 17.3054 17.0851 18.3283Z" fill="white"/>
<path fill-rule="evenodd" clip-rule="evenodd" d="M18.9368 13.7738C20.4202 13.7738 20.5959 13.7794 21.1816 13.8061C21.8139 13.8349 22.4007 13.9617 22.8521 14.4131C23.3035 14.8644 23.4303 15.4512 23.4591 16.0835C23.4858 16.6693 23.4914 16.845 23.4914 18.3283C23.4914 19.8117 23.4858 19.9874 23.4591 20.5731C23.4303 21.2054 23.3035 21.7922 22.8521 22.2436C22.4007 22.695 21.8139 22.8217 21.1816 22.8506C20.5959 22.8773 20.4202 22.8828 18.9368 22.8828C17.4535 22.8828 17.2778 22.8773 16.6921 22.8506C16.0598 22.8217 15.473 22.695 15.0216 22.2436C14.5702 21.7922 14.4434 21.2054 14.4146 20.5731C14.3879 19.9874 14.3823 19.8117 14.3823 18.3283C14.3823 16.845 14.3879 16.6693 14.4146 16.0835C14.4434 15.4512 14.5702 14.8644 15.0216 14.4131C15.473 13.9617 16.0598 13.8349 16.6921 13.8061C17.2778 13.7794 17.4535 13.7738 18.9368 13.7738ZM16.0841 18.3283C16.0841 16.753 17.3612 15.4756 18.9368 15.4756C20.5125 15.4756 21.7896 16.753 21.7896 18.3283C21.7896 19.9037 20.5122 21.1811 18.9368 21.1811C17.3615 21.1811 16.0841 19.9037 16.0841 18.3283ZM21.9025 16.0294C22.2707 16.0294 22.5691 15.7309 22.5691 15.3627C22.5691 14.9945 22.2707 14.696 21.9025 14.696C21.5343 14.696 21.2358 14.9945 21.2358 15.3627C21.2358 15.7309 21.5343 16.0294 21.9025 16.0294Z" fill="white"/>
<path fill-rule="evenodd" clip-rule="evenodd" d="M15.5011 10.045C16.39 10.0047 16.6737 9.995 18.9368 9.995C21.2 9.995 21.4837 10.0047 22.3726 10.045C23.7275 10.1068 24.9167 10.4387 25.8716 11.3936C26.8268 12.3488 27.1584 13.5384 27.2202 14.8926C27.2605 15.7815 27.2702 16.0651 27.2702 18.3283C27.2702 20.5915 27.2605 20.8752 27.2202 21.7641C27.1584 23.119 26.8264 24.3082 25.8716 25.2631C24.9164 26.2183 23.7264 26.5499 22.3726 26.6117C21.4837 26.6519 21.2 26.6617 18.9368 26.6617C16.6737 26.6617 16.39 26.6519 15.5011 26.6117C14.1462 26.5499 12.957 26.2179 12.0021 25.2631C11.0469 24.3078 10.7153 23.1183 10.6535 21.7641C10.6132 20.8752 10.6035 20.5915 10.6035 18.3283C10.6035 16.0651 10.6132 15.7815 10.6535 14.8926C10.7153 13.5377 11.0473 12.3485 12.0021 11.3936C12.9573 10.4384 14.1469 10.1068 15.5011 10.045ZM18.9368 12.7728C17.4282 12.7728 17.2389 12.779 16.6462 12.8061C15.7434 12.8474 14.9504 13.0686 14.3136 13.7051C13.6771 14.3415 13.4559 15.1346 13.4146 16.0377C13.3875 16.6304 13.3813 16.8196 13.3813 18.3283C13.3813 19.837 13.3875 20.0262 13.4146 20.619C13.4559 21.5217 13.6771 22.3148 14.3136 22.9516C14.95 23.5881 15.7431 23.8092 16.6462 23.8506C17.2389 23.8776 17.4282 23.8839 18.9368 23.8839C20.4455 23.8839 20.6348 23.8776 21.2275 23.8506C22.1303 23.8092 22.9233 23.5881 23.5601 22.9516C24.1966 22.3151 24.4178 21.5221 24.4591 20.619C24.4862 20.0262 24.4924 19.837 24.4924 18.3283C24.4924 16.8196 24.4862 16.6304 24.4591 16.0377C24.4178 15.1349 24.1966 14.3419 23.5601 13.7051C22.9237 13.0686 22.1306 12.8474 21.2275 12.8061C20.6348 12.779 20.4455 12.7728 18.9368 12.7728Z" fill="white"/>
</svg>
