<svg width="37" height="37" viewBox="0 0 37 37" fill="none" xmlns="http://www.w3.org/2000/svg">
<path d="M21.5625 15.3284C20.2725 15.3239 19.0338 15.8327 18.1193 16.7425C17.2048 17.6523 16.6897 18.8884 16.6875 20.1784V25.0784C16.6875 25.2773 16.7665 25.468 16.9072 25.6087C17.0478 25.7494 17.2386 25.8284 17.4375 25.8284H19.1875C19.6017 25.8284 19.9375 25.4926 19.9375 25.0784V20.1784C19.9372 19.7189 20.1323 19.2811 20.4742 18.9742C20.8161 18.6672 21.2724 18.5203 21.7292 18.57C22.5675 18.6756 23.1941 19.3918 23.1875 20.2367V25.0784C23.1875 25.4926 23.5233 25.8284 23.9375 25.8284H25.6875C26.1017 25.8284 26.4375 25.4926 26.4375 25.0784V20.1784C26.4353 18.8884 25.9202 17.6523 25.0057 16.7425C24.0912 15.8327 22.8525 15.3239 21.5625 15.3284Z" fill="white"/>
<path d="M11.4375 16.8284C11.4375 16.4142 11.7733 16.0784 12.1875 16.0784H14.4375C14.8517 16.0784 15.1875 16.4142 15.1875 16.8284V25.0784C15.1875 25.4926 14.8517 25.8284 14.4375 25.8284H12.1875C11.7733 25.8284 11.4375 25.4926 11.4375 25.0784V16.8284Z" fill="white"/>
<path d="M15.1875 12.7034C15.1875 13.7389 14.348 14.5784 13.3125 14.5784C12.277 14.5784 11.4375 13.7389 11.4375 12.7034C11.4375 11.6678 12.277 10.8284 13.3125 10.8284C14.348 10.8284 15.1875 11.6678 15.1875 12.7034Z" fill="white"/>
</svg>
