<svg width="40" height="40" viewBox="0 0 40 40" fill="none" xmlns="http://www.w3.org/2000/svg">
<path d="M31.4612 9.5262C31.3 9.36468 31.1086 9.23655 30.8978 9.14912C30.6871 9.06169 30.4611 9.01668 30.2329 9.01668C30.0048 9.01668 29.7788 9.06169 29.568 9.14912C29.3573 9.23655 29.1658 9.36468 29.0046 9.5262L20.485 18.0284L11.9654 9.50877C11.8041 9.34747 11.6126 9.21952 11.4018 9.13223C11.1911 9.04493 10.9652 9 10.7371 9C10.509 9 10.2831 9.04493 10.0723 9.13223C9.86157 9.21952 9.67008 9.34747 9.50877 9.50877C9.34747 9.67008 9.21952 9.86157 9.13223 10.0723C9.04493 10.2831 9 10.509 9 10.7371C9 10.9652 9.04493 11.1911 9.13223 11.4018C9.21952 11.6126 9.34747 11.8041 9.50877 11.9654L18.0284 20.485L9.50877 29.0046C9.34747 29.1659 9.21952 29.3574 9.13223 29.5682C9.04493 29.7789 9 30.0048 9 30.2329C9 30.461 9.04493 30.6869 9.13223 30.8977C9.21952 31.1084 9.34747 31.2999 9.50877 31.4612C9.67008 31.6225 9.86157 31.7505 10.0723 31.8378C10.2831 31.9251 10.509 31.97 10.7371 31.97C10.9652 31.97 11.1911 31.9251 11.4018 31.8378C11.6126 31.7505 11.8041 31.6225 11.9654 31.4612L20.485 22.9416L29.0046 31.4612C29.1659 31.6225 29.3574 31.7505 29.5682 31.8378C29.7789 31.9251 30.0048 31.97 30.2329 31.97C30.461 31.97 30.6869 31.9251 30.8977 31.8378C31.1084 31.7505 31.2999 31.6225 31.4612 31.4612C31.6225 31.2999 31.7505 31.1084 31.8378 30.8977C31.9251 30.6869 31.97 30.461 31.97 30.2329C31.97 30.0048 31.9251 29.7789 31.8378 29.5682C31.7505 29.3574 31.6225 29.1659 31.4612 29.0046L22.9416 20.485L31.4612 11.9654C32.1233 11.3033 32.1233 10.1883 31.4612 9.5262Z" fill="#111111"/>
</svg>
